<?xml version="1.0" encoding="utf-8"?>
<!-- Generator: Adobe Illustrator 16.0.0, SVG Export Plug-In . SVG Version: 6.00 Build 0)  -->
<!DOCTYPE svg PUBLIC "-//W3C//DTD SVG 1.1//EN" "http://www.w3.org/Graphics/SVG/1.1/DTD/svg11.dtd">
<svg version="1.1" id="Layer_1" xmlns="http://www.w3.org/2000/svg" xmlns:xlink="http://www.w3.org/1999/xlink" x="0px" y="0px"
	 width="61px" height="72px" viewBox="0 0 61 72" enable-background="new 0 0 61 72" xml:space="preserve">
<g id="gg5pl6_1_">
	<g>
		<g>
			<path fill="#FFFFFF" d="M0.641,43.386c0-13.982,0.01-27.963-0.024-41.944C0.614,0.57,0.803,0.4,1.662,0.402
				C16.841,0.434,32.021,0.425,47.2,0.425c0.069,0.672-0.735,0.302-0.897,0.788c3.67,2.354,7.352,4.708,11.191,7.077
				c-0.179-1.604-0.657-2.743-2.058-3.518c-1.81-1.002-3.509-2.207-5.261-3.316c-0.373-0.236-0.908-0.401-0.815-1.031
				c3.6,0,7.201,0.033,10.8-0.025c0.824-0.013,0.984,0.163,0.983,0.985c-0.028,23.52-0.022,47.041-0.022,70.56
				c-7.12,0-14.24,0-21.361,0c0.133-0.679,0.697-0.547,1.133-0.558c1.555-0.038,3.112-0.011,4.668-0.017
				c3.328-0.011,6.641-0.284,9.947-0.61c-1.894-0.368-3.799-0.468-5.715-0.397c-1.18-0.007-2.358-0.004-3.537,0
				c-1.042,0.004-2.085-0.025-3.126,0.02c-3.577-0.344-7.164-0.216-10.746-0.216c-0.495-0.589-0.485-0.699,0.37-1.031
				c1.568-0.607,3.112-1.26,4.528-2.18c7.233-4.696,11.064-11.313,11.295-19.974c0.068-2.541-0.269-5.026-1.027-7.445
				c-0.494-1.575-0.396-3.003,0.446-4.477c1.172-2.051,2.544-3.97,3.746-5.998c0.185-0.309,0.398-0.6,0.565-0.919
				c0.894-1.712,0.591-3.073-1.036-4.141c-2.973-1.952-5.994-3.831-8.992-5.743c-2.324-1.482-4.657-2.953-6.978-4.443
				c-2.301-1.478-3.84-1.12-5.279,1.219c-1.172,1.906-2.425,3.762-3.592,5.671c-0.763,1.248-1.826,1.945-3.275,2.152
				c-2.492,0.358-4.976,0.76-7.319,1.76C8.115,27.916,3.358,33.682,1.423,41.826C1.29,42.389,1.451,43.145,0.641,43.386z"/>
			<path fill-rule="evenodd" clip-rule="evenodd" fill="#C2C1C1" d="M0.641,43.386c0.524-0.792,0.451-1.745,0.706-2.612
				c2.847-9.67,9.138-15.648,19.02-17.784c0.892-0.193,1.796-0.377,2.704-0.44c1.465-0.102,2.423-0.878,3.158-2.063
				c1.22-1.966,2.477-3.91,3.686-5.883c1.319-2.152,3.132-2.586,5.259-1.232c5.319,3.385,10.615,6.808,15.977,10.124
				c2.151,1.33,2.499,3.316,1.118,5.366c-1.425,2.117-2.688,4.341-4.078,6.483c-0.867,1.337-0.751,2.671-0.341,4.115
				c2.132,7.488,1.182,14.538-3.245,21.001c-2.854,4.17-6.725,7.096-11.469,8.863c-0.364,0.136-0.937,0.042-1.001,0.661
				c-0.73,0.608-1.662,0.502-2.503,0.647c-3.697,0.638-7.392,0.692-11.054-0.277c-0.242-0.083-0.466-0.215-0.721-0.265
				C9.16,67.28,3.542,61.503,1.085,52.678c-0.279-1.002-0.171-2.054-0.445-3.053C0.641,47.545,0.641,45.465,0.641,43.386z"/>
			<path fill-rule="evenodd" clip-rule="evenodd" fill="#FFFFFF" d="M0.641,49.625c0.676,2.188,0.992,4.47,1.94,6.59
				c2.152,4.809,5.43,8.577,9.972,11.256c1.691,0.998,3.469,1.775,5.352,2.321c-0.083,0.649-0.618,0.516-1.013,0.547
				c-0.674,0.054-1.354,0.019-2.029,0.024c-2.071-0.035-4.142-0.051-6.465,0.419c1.591,0.042,2.888,0.29,4.216,0.377
				c3.512,0.229,7.024,0.2,10.537,0.221c0.321,0.002,0.641,0.02,0.925,0.202c0.131,0.097,0.159,0.218,0.084,0.363
				c-7.58,0-15.16-0.011-22.74,0.019c-0.661,0.003-0.802-0.128-0.799-0.796C0.652,63.988,0.641,56.806,0.641,49.625z"/>
			<path fill-rule="evenodd" clip-rule="evenodd" fill="#ADADAD" d="M49.36,0.425c1.856,1.581,3.963,2.821,6.078,3.966
				c1.847,0.999,2.113,2.594,2.643,4.639c-4.356-2.76-8.43-5.34-12.507-7.922c0.418-0.738,1.238-0.134,1.626-0.682
				C47.92,0.425,48.641,0.425,49.36,0.425z"/>
			<path fill-rule="evenodd" clip-rule="evenodd" fill="#F8F8F8" d="M24.16,71.945c0-0.077-0.002-0.153-0.004-0.23
				c0.159-0.196,0.379-0.273,0.613-0.327c3.463-0.135,6.931-0.094,10.394-0.04c2.475,0.04,4.926-0.37,7.396-0.258
				c2.323,0.07,4.646,0.134,6.954-0.201c1.007-0.006,2.023,0.127,3.101-0.139c-0.854-0.262-1.661-0.104-2.443-0.24
				c-0.114-0.034-0.219-0.088-0.314-0.159c-0.06-0.068-0.082-0.138-0.069-0.21c0.013-0.075,0.027-0.111,0.045-0.111
				c2.299-0.039,4.589,0.008,6.977,0.562c-0.424,0.55-0.954,0.543-1.359,0.592c-1.301,0.155-2.615,0.179-3.922,0.286
				c-3.663,0.301-7.334,0.229-11.002,0.238c-0.279,0-0.566-0.022-0.766,0.238C34.561,71.945,29.36,71.945,24.16,71.945z"/>
			<path fill-rule="evenodd" clip-rule="evenodd" fill="#ADADAD" d="M59.435,14.292c0.017,1.286-0.938,1.919-2.104,1.472
				c-2.534-0.972-5.043-2.008-7.561-3.021c-4.073-1.639-8.148-3.273-12.214-4.932c-0.567-0.231-1.285-0.362-1.399-1.152
				c-0.08-0.561-0.102-1.139,0.387-1.557c0.513-0.438,1.078-0.42,1.686-0.175c3.145,1.273,6.295,2.529,9.442,3.796
				c3.332,1.342,6.665,2.681,9.99,4.042C58.464,13.093,59.349,13.383,59.435,14.292z"/>
			<path fill-rule="evenodd" clip-rule="evenodd" fill="#ADADAD" d="M57.036,18.241c0.018,1.073-0.965,1.695-2.153,1.25
				c-2.016-0.755-3.999-1.595-5.996-2.4c-4.512-1.818-9.023-3.635-13.533-5.456c-0.332-0.134-0.664-0.278-0.976-0.455
				c-0.726-0.41-0.764-1.096-0.591-1.782c0.176-0.697,0.749-0.874,1.406-0.835c0.942,0.055,1.748,0.534,2.593,0.873
				c5.884,2.359,11.757,4.743,17.632,7.123C56.203,16.877,57.015,17.183,57.036,18.241z"/>
			<path fill-rule="evenodd" clip-rule="evenodd" fill="#ADADAD" d="M60.854,11.868c-0.975,0.257-1.567-0.146-2.184-0.395
				C52.422,8.951,46.178,6.42,39.934,3.884c-1.256-0.51-1.692-1.254-1.3-2.144c0.371-0.84,1.201-1.044,2.379-0.57
				c2.478,0.999,4.961,1.984,7.428,3.009c2.301,0.956,4.231,2.543,6.349,3.813C56.797,9.196,58.739,10.51,60.854,11.868z"/>
			<path fill-rule="evenodd" clip-rule="evenodd" fill="#C0C0BF" d="M42.641,71.467c-5.99,0.339-11.986,0.183-17.98,0.23
				c-1.039-0.282-2.104-0.003-3.15-0.15c-1.902-0.221-3.828,0.083-5.723-0.241c-0.427-0.074-1.026,0.056-1.065-0.667
				c0.443-0.651,1.171-0.214,1.724-0.448c0.651-0.074,1.314-0.007,1.959-0.165c3.938,0.95,7.895,0.927,11.848,0.149
				c0.634-0.125,1.261-0.08,1.882-0.188c0.435-0.271,0.92-0.193,1.39-0.191c3.199,0.017,6.402-0.094,9.596,0.224
				c1.022,0.28,2.067,0.058,3.1,0.13c0.498,0.018,0.997-0.039,1.493,0.042c0.387,0.113,0.788,0.049,1.18,0.102
				c0.294,0.039,0.567,0.138,0.534,0.495c-0.028,0.312-0.312,0.275-0.542,0.317c-1.766,0.319-3.547,0.225-5.324,0.241
				C43.252,71.348,42.924,71.258,42.641,71.467z"/>
			<path fill-rule="evenodd" clip-rule="evenodd" fill="#ADADAD" d="M39.529,15.254c3.322,1.114,6.498,2.597,9.76,3.866
				c1.408,0.548,2.797,1.147,4.201,1.71c1.002,0.401,1.19,1.205,0.808,2.046s-1.136,0.992-2.025,0.614
				c-1.775-0.754-3.295-1.925-4.91-2.937c-2.629-1.647-5.227-3.343-7.838-5.019c-0.071-0.064-0.094-0.127-0.068-0.189
				C39.481,15.285,39.506,15.254,39.529,15.254z"/>
			<path fill-rule="evenodd" clip-rule="evenodd" fill="#D8D7D7" d="M47.679,70.27c-0.479-0.002-0.957-0.005-1.436-0.007
				c-0.08-0.05-0.106-0.101-0.082-0.152c0.024-0.053,0.05-0.079,0.077-0.079c1.197-0.001,2.396-0.002,3.594-0.002
				c0.006,0.077,0.01,0.155,0.011,0.233C49.122,70.479,48.4,70.427,47.679,70.27z"/>
			<path fill-rule="evenodd" clip-rule="evenodd" fill="#CBCACA" d="M46.238,70.031c0.001,0.077,0.003,0.154,0.005,0.231
				c-1.037-0.133-2.118,0.292-3.123-0.244C44.158,70.023,45.198,70.027,46.238,70.031z"/>
			<path fill-rule="evenodd" clip-rule="evenodd" fill="#B3B3B4" d="M39.529,15.254c-0.001,0.094-0.003,0.188-0.005,0.282
				c-0.305-0.13-0.622-0.243-0.851-0.58C39.072,14.874,39.306,15.053,39.529,15.254z"/>
			<path fill-rule="evenodd" clip-rule="evenodd" fill="#FFFFFF" d="M25.095,69.778c-11.174-0.255-20.497-7.33-22.917-18.42
				c-2.127-9.749,2.527-19.802,11.243-24.717c3.23-1.821,6.723-2.648,10.332-3.125c1.395-0.184,2.351-0.927,3.079-2.04
				c1.42-2.171,2.806-4.364,4.225-6.535c0.945-1.445,1.746-1.7,3.203-0.812c3.066,1.869,6.078,3.825,9.112,5.747
				c2.393,1.516,4.781,3.041,7.178,4.551c1.657,1.044,1.902,2.119,0.827,3.808c-1.308,2.053-2.61,4.109-3.941,6.147
				c-0.977,1.497-1.215,3.077-0.747,4.8c0.729,2.696,1.369,5.422,1.212,8.239c-0.303,5.379-2.098,10.161-5.66,14.283
				c-3.711,4.292-8.396,6.755-13.912,7.747C27.158,69.664,25.955,69.696,25.095,69.778z"/>
			<path fill-rule="evenodd" clip-rule="evenodd" fill="#D3D3D2" d="M18.405,70.025c-0.59,0.479-1.285,0.136-1.921,0.245
				c-0.502,0.216-1.023,0.085-1.538,0.084c-0.127-0.074-0.173-0.183-0.137-0.325c1.029-0.12,2.097,0.267,3.097-0.237
				C18.111,69.785,18.294,69.827,18.405,70.025z"/>
			<path fill-rule="evenodd" clip-rule="evenodd" fill="#F7F7F8" d="M14.809,70.029c-0.006,0.076-0.011,0.153-0.014,0.231
				c-0.045,0.042-0.09,0.084-0.135,0.126c-0.331,0.198-0.7,0.174-1.062,0.188c-0.703,0.012-1.412-0.062-2.161,0.144
				c1.081,0.367,2.167,0.059,3.208,0.28c1.847,0.39,3.717,0.364,5.587,0.356c0.429-0.002,0.876-0.114,1.289,0.11
				c1.042,0.143,2.122-0.236,3.14,0.231c-0.168,0.006-0.336,0.012-0.504,0.018c-5.568,0.004-11.136,0.021-16.663-0.942
				C9.887,69.981,12.348,70.006,14.809,70.029z"/>
			<path fill-rule="evenodd" clip-rule="evenodd" fill="#CBCACA" d="M47.679,70.27c0.722-0.002,1.442-0.005,2.164-0.007h-0.001
				c0.281,0.259,0.658,0.028,0.96,0.188c0.139,0.253,0.014,0.424-0.177,0.575c-0.24,0.151-0.563-0.028-0.784,0.198
				c-2.394,0.287-4.797,0.268-7.2,0.242c0.388-0.413,0.895-0.239,1.344-0.23c1.756,0.035,3.496-0.058,5.359-0.401
				C48.822,70.237,48.067,70.783,47.679,70.27z"/>
			<path fill-rule="evenodd" clip-rule="evenodd" fill="#D8D7D7" d="M49.841,71.225c0.172-0.281,0.456-0.229,0.72-0.24
				c0.109-0.145,0.513-0.141,0.238-0.478c-0.33-0.037-0.708,0.109-0.957-0.244c1.247-0.017,2.496-0.06,3.881,0.453
				C52.367,71.335,51.096,71.223,49.841,71.225z"/>
			<path fill-rule="evenodd" clip-rule="evenodd" fill="#CACACA" d="M21.521,71.466c-2.404,0.025-4.807,0.045-7.2-0.241
				c-0.282-0.219-0.612-0.095-0.919-0.121c-0.274-0.022-0.621,0.024-0.592-0.384c0.028-0.394,0.383-0.312,0.648-0.33
				c0.393,0.004,0.787-0.014,1.18,0.013c0.055,0.035,0.11,0.069,0.166,0.104c0.853,0.869,1.999,0.526,3.012,0.7
				C19.035,71.417,20.314,70.93,21.521,71.466z"/>
			<path fill-rule="evenodd" clip-rule="evenodd" fill="#CACACA" d="M14.794,70.261c0.563,0.003,1.126,0.007,1.689,0.01
				c-0.509,0.449-1.123,0.145-1.682,0.236L14.8,70.504c-0.078-0.053-0.104-0.105-0.078-0.159c0.025-0.054,0.051-0.081,0.078-0.081
				L14.794,70.261z"/>
			<path fill-rule="evenodd" clip-rule="evenodd" fill="#9EC53E" d="M43.697,55.446c1.018-2.356,1.712-4.665,1.755-7.071
				c0.022-1.255,0.419-1.898,1.571-2.16c0.517,6.328-2.818,13.996-8.965,18.275c-7.478,5.205-15.476,5.885-23.521,1.637
				C6.692,61.985,2.979,55.104,2.729,46.271c6.162,2.182,12.5,2.271,18.812,2.411c6.151,0.137,12.307,0.075,18.425-0.742
				c1.187-0.158,2.381-0.305,3.543-0.577c0.79-0.185,0.755,0.06,0.647,0.688c-0.198,1.146-0.365,2.332-0.892,3.341
				C42.512,52.838,42.938,54.039,43.697,55.446z"/>
			<path fill-rule="evenodd" clip-rule="evenodd" fill="#9EC53E" d="M4.356,45.682c2.361-0.841,4.546-1.082,6.721-1.319
				c5.365-0.584,10.754-0.806,16.146-0.679C32.609,43.81,38,43.977,43.309,45.052c0.405,0.082,1.014,0.011,1.055,0.556
				c0.054,0.7-0.635,0.58-1.06,0.664c-4.56,0.904-9.183,1.122-13.813,1.299c-6.037,0.229-12.055,0.008-18.062-0.58
				C9.128,46.766,6.837,46.463,4.356,45.682z"/>
			<path fill-rule="evenodd" clip-rule="evenodd" fill="#D9D8D8" d="M13.6,70.505c-0.214,0.032-0.535-0.074-0.576,0.228
				c-0.036,0.262,0.254,0.228,0.437,0.246c0.302,0.033,0.638-0.064,0.859,0.246c-1.248-0.001-2.505,0.079-3.899-0.387
				c1.097-0.713,2.156-0.547,3.18-0.573c0.078,0.054,0.104,0.106,0.078,0.16S13.626,70.505,13.6,70.505z"/>
			<path fill-rule="evenodd" clip-rule="evenodd" fill="#D3D3D2" d="M13.6,70.505c0-0.08,0-0.159,0-0.24
				c0.399,0,0.799-0.001,1.199-0.001c0,0.08,0,0.161,0,0.24C14.4,70.505,14,70.505,13.6,70.505z"/>
			<path fill-rule="evenodd" clip-rule="evenodd" fill="#CFCFCF" d="M50.799,70.507c0.215,0.038,0.613-0.065,0.565,0.23
				c-0.069,0.423-0.523,0.177-0.804,0.247C50.64,70.825,50.72,70.666,50.799,70.507z"/>
			<path fill-rule="evenodd" clip-rule="evenodd" fill="#FEFEFD" d="M26.561,66.082c0.009,1.045-0.766,1.827-1.801,1.819
				c-0.968-0.007-1.748-0.761-1.79-1.731c-0.043-0.993,0.778-1.879,1.763-1.9C25.74,64.249,26.551,65.053,26.561,66.082z"/>
			<path fill-rule="evenodd" clip-rule="evenodd" fill="#FBFCF7" d="M18.606,62.939c-0.061,0.754-0.478,1.228-1.195,1.237
				c-0.715,0.011-1.18-0.436-1.195-1.188c-0.016-0.763,0.437-1.197,1.163-1.211C18.112,61.763,18.524,62.217,18.606,62.939z"/>
			<path fill-rule="evenodd" clip-rule="evenodd" fill="#FCFDF9" d="M23.641,61.297c0.06-0.755,0.476-1.164,1.23-1.128
				c0.773,0.039,1.122,0.553,1.089,1.275c-0.032,0.696-0.493,1.103-1.166,1.084C24.07,62.507,23.649,62.066,23.641,61.297z"/>
			<path fill-rule="evenodd" clip-rule="evenodd" fill="#F9FCF5" d="M29.246,56.231c0.662,0.096,1.045,0.46,1.006,1.117
				s-0.432,0.998-1.113,0.954c-0.635-0.041-0.92-0.423-0.926-1.018C28.207,56.597,28.638,56.307,29.246,56.231z"/>
			<path fill-rule="evenodd" clip-rule="evenodd" fill="#F9FBF4" d="M26.285,57.665c-0.112,0.575-0.417,0.929-1.051,0.876
				c-0.571-0.048-0.844-0.378-0.833-0.945c0.011-0.581,0.351-0.885,0.895-0.894C25.904,56.691,26.228,57.055,26.285,57.665z"/>
			<path fill-rule="evenodd" clip-rule="evenodd" fill="#FAFCF5" d="M28.077,63.549c-0.028,0.606-0.301,0.955-0.871,0.976
				c-0.626,0.023-0.976-0.343-0.98-0.94c-0.003-0.534,0.322-0.917,0.874-0.943C27.721,62.61,28.019,63.003,28.077,63.549z"/>
			<path fill-rule="evenodd" clip-rule="evenodd" fill="#F8FBF2" d="M22.428,60.136c-0.491-0.096-0.896-0.314-0.901-0.899
				c-0.005-0.559,0.314-0.908,0.859-0.941c0.571-0.034,0.892,0.341,0.916,0.875C23.325,59.717,22.984,60.035,22.428,60.136z"/>
			<path fill-rule="evenodd" clip-rule="evenodd" fill="#FCFDF9" d="M23.472,53.535c-0.003,0.6-0.29,0.938-0.855,0.949
				c-0.546,0.01-0.893-0.257-0.896-0.859c-0.003-0.571,0.253-0.895,0.84-0.911C23.141,52.697,23.431,53.001,23.472,53.535z"/>
			<path fill-rule="evenodd" clip-rule="evenodd" fill="#F7FAF0" d="M27.631,53.824c-0.556-0.025-0.901-0.316-0.923-0.865
				c-0.019-0.482,0.244-0.842,0.747-0.891c0.549-0.054,0.914,0.237,0.981,0.786C28.506,53.429,28.145,53.705,27.631,53.824z"/>
			<path fill-rule="evenodd" clip-rule="evenodd" fill="#F6FAF0" d="M17.428,61.081c-0.547-0.068-0.896-0.332-0.911-0.897
				c-0.014-0.51,0.285-0.836,0.763-0.891c0.549-0.063,0.906,0.248,0.956,0.802C18.288,60.665,17.923,60.941,17.428,61.081z"/>
			<path fill-rule="evenodd" clip-rule="evenodd" fill="#FAFCF6" d="M31.155,62.671c-0.047,0.539-0.318,0.887-0.903,0.86
				c-0.51-0.023-0.798-0.328-0.808-0.844c-0.011-0.591,0.31-0.868,0.891-0.859C30.874,61.838,31.112,62.147,31.155,62.671z"/>
			<path fill-rule="evenodd" clip-rule="evenodd" fill="#F9FBF3" d="M32.225,64.021c0.63,0.017,0.903,0.367,0.906,0.842
				c0.005,0.537-0.295,0.897-0.9,0.881c-0.541-0.015-0.818-0.333-0.822-0.83C31.404,64.354,31.726,64.036,32.225,64.021z"/>
			<path fill-rule="evenodd" clip-rule="evenodd" fill="#F8FBF3" d="M26.338,50.072c0.696-0.025,0.987,0.271,1.025,0.771
				c0.041,0.52-0.286,0.846-0.771,0.883c-0.507,0.04-0.834-0.292-0.866-0.792C25.694,50.432,25.972,50.12,26.338,50.072z"/>
			<path fill-rule="evenodd" clip-rule="evenodd" fill="#F3F8E9" d="M20.986,51.932c-0.506-0.001-0.769-0.279-0.783-0.732
				c-0.015-0.474,0.294-0.737,0.751-0.744c0.416-0.007,0.671,0.256,0.702,0.665C21.691,51.592,21.428,51.855,20.986,51.932z"/>
			<path fill-rule="evenodd" clip-rule="evenodd" fill="#F0F6E4" d="M18.833,66.432c-0.396-0.066-0.661-0.294-0.656-0.71
				c0.007-0.479,0.305-0.747,0.776-0.696c0.411,0.043,0.634,0.354,0.607,0.758C19.533,66.193,19.265,66.416,18.833,66.432z"/>
			<path fill-rule="evenodd" clip-rule="evenodd" fill="#F7FAF1" d="M27.559,54.823c0.001,0.539-0.189,0.806-0.627,0.836
				c-0.479,0.033-0.795-0.207-0.788-0.683c0.006-0.448,0.29-0.756,0.767-0.744C27.336,54.242,27.542,54.52,27.559,54.823z"/>
			<path fill-rule="evenodd" clip-rule="evenodd" fill="#F6F9EE" d="M20.593,60.482c-0.027,0.474-0.273,0.762-0.736,0.762
				c-0.396,0-0.677-0.246-0.717-0.654c-0.046-0.475,0.257-0.774,0.679-0.814C20.263,59.733,20.543,60.023,20.593,60.482z"/>
			<path fill-rule="evenodd" clip-rule="evenodd" fill="#F5F9EE" d="M14.492,62.228c0.458,0.049,0.772,0.28,0.773,0.743
				c0,0.46-0.315,0.744-0.758,0.737c-0.379-0.005-0.668-0.241-0.69-0.669C13.793,62.565,14.054,62.316,14.492,62.228z"/>
			<path fill-rule="evenodd" clip-rule="evenodd" fill="#F2F7E7" d="M25.156,51.78c0.381,0.047,0.65,0.266,0.636,0.678
				c-0.015,0.409-0.293,0.649-0.702,0.635c-0.358-0.014-0.588-0.246-0.586-0.611C24.507,52.089,24.681,51.801,25.156,51.78z"/>
			<path fill-rule="evenodd" clip-rule="evenodd" fill="#FAFCF5" d="M22.396,62.999c-0.08,0.456-0.342,0.691-0.748,0.646
				c-0.398-0.045-0.632-0.313-0.604-0.743c0.03-0.456,0.325-0.603,0.731-0.583C22.227,62.342,22.36,62.65,22.396,62.999z"/>
			<path fill-rule="evenodd" clip-rule="evenodd" fill="#F6FAEF" d="M30.356,65.166c-0.149,0.432-0.382,0.61-0.75,0.55
				c-0.398-0.065-0.506-0.356-0.443-0.702c0.065-0.361,0.306-0.558,0.684-0.474C30.212,64.622,30.3,64.926,30.356,65.166z"/>
			<path fill-rule="evenodd" clip-rule="evenodd" fill="#F0F6E4" d="M21.392,64.867c0.305,0.023,0.547,0.149,0.562,0.482
				c0.015,0.313-0.173,0.535-0.481,0.571c-0.323,0.037-0.533-0.167-0.557-0.479S21.073,64.929,21.392,64.867z"/>
			<path fill-rule="evenodd" clip-rule="evenodd" fill="#EAF2D6" d="M23.328,56.062c-0.068,0.293-0.226,0.522-0.548,0.486
				c-0.35-0.039-0.569-0.26-0.5-0.638c0.055-0.305,0.265-0.472,0.585-0.42C23.178,55.542,23.318,55.755,23.328,56.062z"/>
			<path fill-rule="evenodd" clip-rule="evenodd" fill="#F5F9EC" d="M29.143,60.153c-0.027,0.3-0.183,0.503-0.498,0.532
				c-0.325,0.029-0.529-0.166-0.557-0.465c-0.029-0.308,0.156-0.516,0.478-0.54C28.89,59.656,29.058,59.852,29.143,60.153z"/>
			<path fill-rule="evenodd" clip-rule="evenodd" fill="#F6FAEF" d="M19.145,56.592c0.34,0.002,0.519,0.192,0.523,0.511
				c0.005,0.31-0.151,0.541-0.491,0.532c-0.307-0.009-0.531-0.163-0.531-0.507C18.645,56.802,18.82,56.622,19.145,56.592z"/>
			<path fill-rule="evenodd" clip-rule="evenodd" fill="#F8FBF2" d="M21.064,55.082c-0.049,0.395-0.235,0.573-0.559,0.525
				c-0.321-0.048-0.457-0.288-0.426-0.596c0.028-0.281,0.24-0.377,0.499-0.376C20.917,54.637,21.06,54.828,21.064,55.082z"/>
			<path fill-rule="evenodd" clip-rule="evenodd" fill="#ECF4DB" d="M24.604,54.069c-0.017,0.263-0.125,0.368-0.301,0.379
				c-0.159,0.009-0.322-0.026-0.356-0.225c-0.043-0.258,0.13-0.38,0.336-0.373C24.405,53.855,24.521,54.008,24.604,54.069z"/>
			<path fill-rule="evenodd" clip-rule="evenodd" fill="#ECF3DA" d="M23.275,50.378c-0.169-0.027-0.315-0.101-0.3-0.292
				c0.018-0.224,0.152-0.361,0.393-0.307c0.169,0.037,0.264,0.165,0.25,0.346C23.601,50.336,23.425,50.342,23.275,50.378z"/>
		</g>
	</g>
</g>
</svg>
